<?xml version="1.0" ?>
<!DOCTYPE svg  PUBLIC '-//W3C//DTD SVG 1.1//EN'  'http://www.w3.org/Graphics/SVG/1.1/DTD/svg11.dtd'>
<!-- Uploaded to: SVG Repo, www.svgrepo.com, Generator: SVG Repo Mixer Tools -->
<svg width="800px" height="800px" viewBox="0 0 32 32" enable-background="new 0 0 32 32" version="1.1" xml:space="preserve" xmlns="http://www.w3.org/2000/svg" xmlns:xlink="http://www.w3.org/1999/xlink">
<g id="Home"/>
<g id="Print"/>
<g id="Mail"/>
<g id="Camera"/>
<g id="Video"/>
<g id="Film"/>
<g id="Message"/>
<g id="Telephone"/>
<g id="User"/>
<g id="File"/>
<g id="Folder"/>
<g id="Map"/>
<g id="Download"/>
<g id="Upload"/>
<g id="Video_Recorder"/>
<g id="Schedule"/>
<g id="Cart"/>
<g id="Setting"/>
<g id="Search"/>
<g id="Pencils"/>
<g id="Group"/>
<g id="Record"/>
<g id="Headphone"/>
<g id="Music_Player"/>
<g id="Sound_On"/>
<g id="Sound_Off"/>
<g id="Lock"/>
<g id="Lock_open"/>
<g id="Love"/>
<g id="Favorite"/>
<g id="Film_1_"/>
<g id="Music"/>
<g id="Puzzle">
<path d="M27,10c0.9,0,1.7,0.3,2.4,0.8c0.3,0.2,0.7,0.3,1,0.1c0.3-0.2,0.6-0.5,0.6-0.9V2c0-0.5-0.5-1-1-1H19   c-0.5,0-1,0.5-1,1c0,2.2-1.8,4-4,4s-4-1.8-4-4c0-0.5-0.5-1-1-1H2C1.5,1,1,1.5,1,2v14v8c0,0.5,0.5,1,1,1h3c0,3.3,2.7,6,6,6   s6-2.7,6-6h13c0.5,0,1-0.5,1-1v-6c0-0.4-0.2-0.7-0.6-0.9s-0.7-0.1-1,0.1C28.7,17.7,27.9,18,27,18c-1.5,0-2.8-0.8-3.5-2   c-0.3-0.6-0.5-1.3-0.5-2C23,11.8,24.8,10,27,10z" fill="#0E9688"/>
</g>
<g id="Turn_Off"/>
<g id="Book"/>
<g id="Save"/>
<g id="Reload"/>
<g id="Trash"/>
<g id="Tag"/>
<g id="Link"/>
<g id="Like"/>
<g id="Bad"/>
<g id="Gallery"/>
<g id="Add"/>
<g id="Close"/>
<g id="Forward"/>
<g id="Back"/>
<g id="Buy"/>
<g id="Mac"/>
<g id="Laptop"/>
</svg>