<!DOCTYPE svg PUBLIC "-//W3C//DTD SVG 1.1//EN" "http://www.w3.org/Graphics/SVG/1.1/DTD/svg11.dtd">
<!-- Uploaded to: SVG Repo, www.svgrepo.com, Transformed by: SVG Repo Mixer Tools -->
<svg version="1.1" id="Layer_1" xmlns="http://www.w3.org/2000/svg" xmlns:xlink="http://www.w3.org/1999/xlink" viewBox="0 0 512.002 512.002" xml:space="preserve" width="800px" height="800px" fill="#000000">
<g id="SVGRepo_bgCarrier" stroke-width="0"/>
<g id="SVGRepo_tracerCarrier" stroke-linecap="round" stroke-linejoin="round"/>
<g id="SVGRepo_iconCarrier"> <circle style="fill:#21f2e4;" cx="256.004" cy="256.001" r="204.8"/> <path style="fill:#919CB0;" d="M232.956,403.466l-6.903-86.852h-26.871l18.714-102.972h76.604l16.35,90.001h-23.074 c-7.057,0-12.8,5.743-12.8,12.8v26.846c0,3.422,1.34,6.639,3.763,9.062l4.147,4.139l-3.379,46.976H232.956z"/> <path style="fill:#FFE7E5;" d="M256.192,188.793c-21.854,0-39.637-17.783-39.637-39.646s17.783-39.646,39.637-39.646 s39.637,17.783,39.637,39.646S278.046,188.793,256.192,188.793z"/> <rect x="274.948" y="303.643" style="fill:#BCB0AD;" width="66.637" height="52.446"/> <g> <path style="fill:#573A32;" d="M308.297,149.147c0-28.723-23.373-52.079-52.096-52.079s-52.087,23.347-52.087,52.079 s23.364,52.079,52.087,52.079S308.297,177.87,308.297,149.147z M256.201,175.993c-14.797,0-26.837-12.049-26.837-26.846 s12.041-26.846,26.837-26.846s26.837,12.049,26.837,26.846C283.038,163.943,270.997,175.993,256.201,175.993z"/> <path style="fill:#573A32;" d="M328.819,290.843h-7.612l-13.235-72.798c-1.775-9.754-10.274-16.828-20.198-16.828h-31.573h-31.565 c-9.924,0-18.423,7.074-20.198,16.828l-15.787,86.852c-1.084,5.999,0.529,12.126,4.437,16.802 c3.908,4.702,9.651,7.373,15.761,7.373h5.709l5.385,67.951c0.862,10.598,9.847,18.876,20.463,18.876h31.573 c10.641,0,19.627-8.277,20.463-18.876l2.236-28.126h34.133c14.14,0,25.6-11.46,25.6-25.6v-26.846 C354.419,302.311,342.95,290.843,328.819,290.843z M262.174,316.443v26.846c0,7.083,2.884,13.491,7.535,18.125l-2.099,29.252 h-22.827l-6.903-86.852h-23.364l14.063-77.372h14.985v43.298c0,6.972,5.666,12.621,12.621,12.621s12.638-5.649,12.638-12.621 v-43.298h14.985l11.699,64.401h-7.74C273.643,290.843,262.174,302.311,262.174,316.443z M328.819,343.297h-41.037v-26.846h41.037 L328.819,343.297L328.819,343.297z"/> <path style="fill:#573A32;" d="M508.258,272.547l-35.524-35.524C463.108,125.74,369.779,38.401,256.004,38.401 c-118.443,0-214.716,94.652-217.472,212.429L21.85,234.147c-5.001-5.001-13.099-5.001-18.099,0c-5.001,5.001-5.001,13.099,0,18.099 l37.214,37.214c16.102,104.294,106.24,184.141,215.04,184.141c114.33,0,208-88.192,216.849-200.252l17.297,17.297 c2.5,2.5,5.777,3.746,9.054,3.746s6.554-1.246,9.054-3.746C513.25,285.654,513.25,277.548,508.258,272.547z M413.35,290.655 c5.001,5.001,13.099,5.001,18.099,0l15.275-15.275c0.102-0.128,0.222-0.213,0.324-0.333 c-9.583,96.956-91.597,172.954-191.044,172.954c-96.102,0-175.932-70.972-189.841-163.26l32.495-32.495 c5.001-5.001,5.001-13.099,0-18.099c-5.001-5.001-13.099-5.001-18.099,0l-16.265,16.265c-0.051,0.06-0.094,0.094-0.145,0.154 C67.034,147.21,151.957,64.001,256.004,64.001c100.045,0,182.409,76.919,191.181,174.72l-33.835,33.835 C408.358,277.548,408.358,285.654,413.35,290.655z"/> </g> </g>
</svg>