<?xml version="1.0" encoding="utf-8"?>
<!-- Uploaded to: SVG Repo, www.svgrepo.com, Generator: SVG Repo Mixer Tools -->
<svg version="1.1" id="Uploaded to svgrepo.com" xmlns="http://www.w3.org/2000/svg" xmlns:xlink="http://www.w3.org/1999/xlink" 
	 width="800px" height="800px" viewBox="0 0 32 32" xml:space="preserve">
<style type="text/css">
	.isometric_acht{fill:#F05A28;}
	.isometric_negen{fill:#BE1E2D;}
	.isometric_tien{fill:#7BD6C4;}
	.isometric_twaalf{fill:#569080;}
	.st0{fill:#225B49;}
	.st1{fill:#F28103;}
	.st2{fill:#72C0AB;}
	.st3{fill:#F29227;}
	.st4{fill:#FF7344;}
	.st5{fill:#F8F7C5;}
	.st6{fill:#F5DF89;}
	.st7{fill:#AD9A74;}
	.st8{fill:none;}
	.st9{fill:#BE1E2D;}
	.st10{fill:#F2D76C;}
	.st11{fill:#7BD6C4;}
	.st12{fill:#569080;}
</style>
<g>
	<path class="st9" d="M18.612,6.296v0.084C18.613,6.352,18.613,6.324,18.612,6.296z"/>
	<path class="isometric_twaalf" d="M14.612,3.279v0.089c0-0.03,0.01-0.059,0.014-0.089H14.612z"/>
	<path class="isometric_twaalf" d="M18.595,3.279c0.005,0.032,0.016,0.064,0.016,0.096V3.279H18.595z"/>
	<path class="isometric_twaalf" d="M18.612,3.374C18.614,3.836,18.613,3.67,18.612,3.374s-0.198-0.591-0.59-0.818
		c-0.784-0.452-2.05-0.455-2.828-0.005c-0.389,0.225-0.583,0.52-0.581,0.815c0.002,0.296,0.003,0.475,0,0v2.928
		c-0.052,1.549,4.08,1.547,3.994,0L18.612,3.374z"/>
	<path class="isometric_tien" d="M18.03,4.19c-0.779,0.45-2.045,0.447-2.828-0.005c-0.783-0.452-0.787-1.183-0.009-1.633
		c0.779-0.45,2.045-0.447,2.828,0.005C18.805,3.009,18.809,3.74,18.03,4.19z"/>
	<path class="st8" d="M17.956,11.68c-1.29,0.706-2.336,2.298-2.336,3.556s1.046,1.705,2.336,0.999
		c1.29-0.706,2.336-2.298,2.336-3.556C20.292,11.421,19.246,10.974,17.956,11.68z"/>
	<path class="isometric_twaalf" d="M6.004,24.935l0.039-0.013C6.03,24.926,6.014,24.919,6,24.921L6.004,24.935z"/>
	<path class="isometric_negen" d="M23.005,19.5c1.185-0.369,0.818-2.211-0.713-1.742l-1.179-2.88
		c0.631-1.06,1.027-2.194,1.027-3.211c0-1.073-0.425-1.817-1.12-2.164c-0.572-0.355-1.706-0.993-2.408-1.405V6.379
		c-0.066,1.459-4.047,1.442-3.996-0.084l-0.004,1.951c-2.177,1.335-3.903,4.029-3.903,6.188c0,1.017,0.395,1.718,1.026,2.087
		l-1.441,5.097l1.369-0.427c0.676-0.257,1.27,1.587,0.568,1.785l-2.546,0.796l-0.699,2.475l1.3,3.536l4.333-2.756l1.475-5.306
		l1.962-0.624l-0.012,0.004l1.455,3.64l1.488,0.787l2.876-3.933L23.005,19.5z M8.025,22.625c0.311,0.284,0.491,0.85,0.4,1.264
		s-0.417,0.52-0.728,0.236c-0.311-0.284-0.491-0.85-0.4-1.264C7.388,22.447,7.714,22.341,8.025,22.625z"/>
	<path class="isometric_acht" d="M23.862,21.595L23.005,19.5c1.185-0.369,0.818-2.211-0.713-1.742l-1.179-2.88
		c0.631-1.06,1.027-2.194,1.027-3.211c0-2.253-1.873-3.054-4.184-1.789c-2.311,1.265-4.184,4.116-4.184,6.369
		c0,1.017,0.395,1.718,1.026,2.087l-2.749,9.726l-1.763,1.724l4.333-2.756l1.475-5.306l2.923-0.93
		c0.699-0.197,0.111-2.042-0.568-1.784l-1.755,0.556l0.312-1.123c0.734-0.235,1.286-0.565,1.898-1.039l2.523,6.313l-0.441,1.813
		L23.862,21.595z M17.956,16.235c-1.29,0.706-2.336,0.259-2.336-0.999s1.046-2.85,2.336-3.556c1.29-0.706,2.336-0.259,2.336,0.999
		C20.292,13.937,19.246,15.529,17.956,16.235z M12.232,22.979l-4.053,1.263c0.622-0.298,0.063-1.94-0.586-1.762l-0.006-0.018
		l4.077-1.268C12.343,20.937,12.931,22.782,12.232,22.979z"/>
</g>
</svg>