<?xml version="1.0" encoding="iso-8859-1"?>
<!-- Uploaded to: SVG Repo, www.svgrepo.com, Generator: SVG Repo Mixer Tools -->
<svg version="1.1" id="Layer_1" xmlns="http://www.w3.org/2000/svg" xmlns:xlink="http://www.w3.org/1999/xlink" 
	 viewBox="0 0 512 512" xml:space="preserve">
<path style="fill:#ECEDEF;" d="M0,76.426v410.455C0,500.732,11.268,512,25.119,512h461.762C500.732,512,512,500.732,512,486.881
	V76.426H0z"/>
<path style="fill:#D9DCDF;" d="M25.119,486.881V76.426H0v410.455C0,500.732,11.268,512,25.119,512h25.119
	C36.387,512,25.119,500.732,25.119,486.881z"/>
<path style="fill:#68727E;" d="M486.881,0H25.119C11.246,0,0,11.246,0,25.119v76.426h512V25.119C512,11.246,500.754,0,486.881,0z"/>
<path style="fill:#55606E;" d="M50.238,0H25.119C11.246,0,0,11.246,0,25.119v76.426h25.119V25.119C25.119,11.246,36.365,0,50.238,0z
	"/>
<path style="fill:#FFC44F;" d="M67.875,25.653c-13.851,0-25.119,11.268-25.119,25.119s11.268,25.119,25.119,25.119
	s25.119-11.268,25.119-25.119S81.725,25.653,67.875,25.653z"/>
<path style="fill:#C4DF64;" d="M136.284,25.653c-13.851,0-25.119,11.268-25.119,25.119s11.268,25.119,25.119,25.119
	c13.851,0,25.119-11.268,25.119-25.119S150.135,25.653,136.284,25.653z"/>
<path style="fill:#FF8C78;" d="M204.693,25.653c-13.851,0-25.119,11.268-25.119,25.119s11.268,25.119,25.119,25.119
	s25.119-11.268,25.119-25.119S218.544,25.653,204.693,25.653z"/>
<g>
	<path style="fill:#B3B9BF;" d="M384.267,350.597H136.284c-4.427,0-8.017,3.588-8.017,8.017v34.205c0,4.428,3.589,8.017,8.017,8.017
		h247.983c4.428,0,8.017-3.588,8.017-8.017v-34.205C392.284,354.185,388.696,350.597,384.267,350.597z"/>
	<path style="fill:#B3B9BF;" d="M384.267,419.006H136.284c-4.427,0-8.017,3.588-8.017,8.017v34.205c0,4.428,3.589,8.017,8.017,8.017
		h247.983c4.428,0,8.017-3.588,8.017-8.017v-34.205C392.284,422.595,388.696,419.006,384.267,419.006z"/>
</g>
<g>
	<path style="fill:#8E959F;" d="M137.353,384.802v-34.205h-1.069c-4.427,0-8.017,3.588-8.017,8.017v34.205
		c0,4.428,3.589,8.017,8.017,8.017h247.983c4.428,0,8.017-3.588,8.017-8.017H145.37C140.942,392.818,137.353,389.23,137.353,384.802
		z"/>
	<path style="fill:#8E959F;" d="M137.353,453.211v-34.205h-1.069c-4.427,0-8.017,3.588-8.017,8.017v34.205
		c0,4.428,3.589,8.017,8.017,8.017h247.983c4.428,0,8.017-3.588,8.017-8.017H145.37
		C140.942,461.228,137.353,457.639,137.353,453.211z"/>
</g>
<g>
	<path style="fill:#D9DCDF;" d="M461.228,58.789h-17.102c-4.428,0-8.017-3.588-8.017-8.017s3.588-8.017,8.017-8.017h17.102
		c4.428,0,8.017,3.588,8.017,8.017S465.656,58.789,461.228,58.789z"/>
	<path style="fill:#D9DCDF;" d="M418.472,58.789H290.205c-4.428,0-8.017-3.588-8.017-8.017s3.588-8.017,8.017-8.017h128.267
		c4.428,0,8.017,3.588,8.017,8.017S422.9,58.789,418.472,58.789z"/>
</g>
<path style="fill:#8E959F;" d="M306.772,170.489c0-23.281-18.941-42.221-42.221-42.221h-17.102
	c-23.281,0-42.221,18.941-42.221,42.221v8.551c0,4.428,3.589,8.017,8.017,8.017s8.017-3.588,8.017-8.017v-8.551
	c0-14.441,11.748-26.188,26.188-26.188h17.102c14.441,0,26.188,11.747,26.188,26.188v33.937h16.033V170.489z"/>
<rect x="290.739" y="183.668" style="fill:#68727E;" width="16.033" height="20.755"/>
<path style="fill:#509FE8;" d="M307.307,196.676H204.693c-13.851,0-25.119,11.268-25.119,25.119v102.614
	c0,4.428,3.589,8.017,8.017,8.017h136.818c4.428,0,8.017-3.588,8.017-8.017V221.795
	C332.426,207.945,321.158,196.676,307.307,196.676z"/>
<path style="fill:#4D8CCF;" d="M196.142,324.409V221.795c0-13.851,11.268-25.119,25.119-25.119h-16.568
	c-13.851,0-25.119,11.268-25.119,25.119v102.614c0,4.428,3.589,8.017,8.017,8.017h16.568
	C199.731,332.426,196.142,328.838,196.142,324.409z"/>
<path style="fill:#68727E;" d="M281.119,256c0-13.851-11.268-25.119-25.119-25.119c-13.851,0-25.119,11.268-25.119,25.119
	c0,11.048,7.172,20.446,17.102,23.8v18.956c0,4.428,3.589,8.017,8.017,8.017c4.428,0,8.017-3.588,8.017-8.017V279.8
	C273.947,276.446,281.119,267.048,281.119,256z"/>
<path style="fill:#55606E;" d="M256,298.756V279.8c-9.93-3.354-17.102-12.752-17.102-23.8c0-12.487,9.159-22.87,21.111-24.795
	c-1.306-0.211-2.644-0.324-4.008-0.324c-13.851,0-25.119,11.268-25.119,25.119c0,11.048,7.172,20.446,17.102,23.8v18.956
	c0,4.428,3.589,8.017,8.017,8.017c1.462,0,2.828-0.398,4.008-1.081C257.614,304.304,256,301.722,256,298.756z"/>
</svg>