<?xml version="1.0" ?>
<!DOCTYPE svg  PUBLIC '-//W3C//DTD SVG 1.1//EN'  'http://www.w3.org/Graphics/SVG/1.1/DTD/svg11.dtd'>
<!-- Uploaded to: SVG Repo, www.svgrepo.com, Generator: SVG Repo Mixer Tools -->
<svg width="800px" height="800px" viewBox="0 0 32 32" enable-background="new 0 0 32 32" version="1.1" xml:space="preserve" xmlns="http://www.w3.org/2000/svg" xmlns:xlink="http://www.w3.org/1999/xlink">
<g id="Home"/>
<g id="Print"/>
<g id="Mail"/>
<g id="Camera"/>
<g id="Video"/>
<g id="Film"/>
<g id="Message"/>
<g id="Telephone"/>
<g id="User"/>
<g id="File"/>
<g id="Folder"/>
<g id="Map"/>
<g id="Download"/>
<g id="Upload"/>
<g id="Video_Recorder"/>
<g id="Schedule"/>
<g id="Cart"/>
<g id="Setting"/>
<g id="Search"/>
<g id="Pencils"/>
<g id="Group">
<line fill="none" x1="8" x2="8" y1="17" y2="15"/>
<g>
<path d="M8,1C4.1,1,1,4.1,1,8s3.1,7,7,7c2.3,0,4.5-1.1,5.8-3c0.2-0.3,0.4-0.6,0.5-0.9c0.2-0.3,0.3-0.6,0.4-0.9    C14.9,9.5,15,8.8,15,8C15,4.1,11.9,1,8,1z" fill="#E92662"/>
<path d="M14.3,20.9c-0.2-0.3-0.3-0.6-0.5-0.9c-1.3-1.9-3.4-3-5.8-3c-3.9,0-7,3.1-7,7s3.1,7,7,7s7-3.1,7-7    c0-0.8-0.1-1.5-0.4-2.2C14.5,21.5,14.4,21.2,14.3,20.9z" fill="#E92662"/>
<path d="M24,9c-2.3,0-4.5,1.1-5.8,3c-0.2,0.3-0.4,0.6-0.5,0.9c-0.1,0.3-0.3,0.6-0.4,0.9C17.1,14.5,17,15.2,17,16    s0.1,1.5,0.4,2.2c0.1,0.3,0.2,0.6,0.4,0.9c0.2,0.3,0.3,0.6,0.5,0.9c1.3,1.9,3.4,3,5.8,3c3.9,0,7-3.1,7-7S27.9,9,24,9z" fill="#E92662"/>
</g>
<g>
<path d="M18.3,20l-3.6,1.8c-0.1-0.3-0.2-0.6-0.4-0.9s-0.3-0.6-0.5-0.9l3.6-1.8c0.1,0.3,0.2,0.6,0.4,0.9    C17.9,19.4,18.1,19.7,18.3,20z" fill="#3F51B5"/>
</g>
<g>
<path d="M18.3,12c-0.2,0.3-0.4,0.6-0.5,0.9c-0.1,0.3-0.3,0.6-0.4,0.9L13.8,12c0.2-0.3,0.4-0.6,0.5-0.9    c0.2-0.3,0.3-0.6,0.4-0.9L18.3,12z" fill="#3F51B5"/>
</g>
</g>
<g id="Record"/>
<g id="Headphone"/>
<g id="Music_Player"/>
<g id="Sound_On"/>
<g id="Sound_Off"/>
<g id="Lock"/>
<g id="Lock_open"/>
<g id="Love"/>
<g id="Favorite"/>
<g id="Film_1_"/>
<g id="Music"/>
<g id="Puzzle"/>
<g id="Turn_Off"/>
<g id="Book"/>
<g id="Save"/>
<g id="Reload"/>
<g id="Trash"/>
<g id="Tag"/>
<g id="Link"/>
<g id="Like"/>
<g id="Bad"/>
<g id="Gallery"/>
<g id="Add"/>
<g id="Close"/>
<g id="Forward"/>
<g id="Back"/>
<g id="Buy"/>
<g id="Mac"/>
<g id="Laptop"/>
</svg>