<?xml version="1.0" encoding="iso-8859-1"?>
<!-- Uploaded to: SVG Repo, www.svgrepo.com, Generator: SVG Repo Mixer Tools -->
<svg height="800px" width="800px" version="1.1" id="Layer_1" xmlns="http://www.w3.org/2000/svg" xmlns:xlink="http://www.w3.org/1999/xlink" 
	 viewBox="0 0 493.647 493.647" xml:space="preserve">
<path style="fill:#FF811A;" d="M207.336,232.653l32.327-28.428c0.756-0.748,2.08-0.748,2.836,0l11.792,10.374v-5.624h-0.425
	c-0.717,0-1.3-0.575-1.3-1.3v-1.946c0-0.725,0.583-1.308,1.3-1.308h14.273c0.725,0,1.3,0.583,1.3,1.308v1.946
	c0,0.717-0.575,1.3-1.3,1.3h-0.433v17.424l7.129,6.262c0.567,0.567,0.74,1.434,0.433,2.182c-0.315,0.756-1.055,1.245-1.851,1.245
	h-5.585v34.32c0,0.165-0.039,0.331-0.102,0.473h0.441c0.74,0,1.331,0.599,1.331,1.339v3.348c0,0.74-0.599,1.339-1.331,1.339H214
	c-0.733,0-1.331-0.599-1.331-1.339v-3.348c0-0.74,0.599-1.339,1.331-1.339h0.441c-0.063-0.142-0.11-0.299-0.11-0.473v-34.32h-5.577
	c-0.811,0-1.536-0.488-1.851-1.245C206.596,234.086,206.769,233.22,207.336,232.653z"/>
<path style="fill:#FFA017;" d="M214.331,236.079h-5.577c-0.811,0-1.536-0.488-1.851-1.245c-0.307-0.748-0.134-1.615,0.441-2.182
	l32.327-28.428c0.756-0.748,2.08-0.748,2.836,0l11.792,10.374v-5.624h-0.425c-0.717,0-1.3-0.575-1.3-1.3v-1.946
	c0-0.725,0.583-1.308,1.3-1.308h14.273c0.725,0,1.3,0.583,1.3,1.308v1.946c0,0.717-0.575,1.3-1.3,1.3h-0.433v15.029l-52.909,52.901
	H214c-0.733,0-1.331-0.599-1.331-1.339v-3.348c0-0.74,0.599-1.339,1.331-1.339h0.441c-0.063-0.142-0.11-0.299-0.11-0.473
	L214.331,236.079L214.331,236.079z"/>
<g>
	<path style="fill:#324349;" d="M455.562,255.409c0,1.205-0.977,2.174-2.166,2.174H215.245c-1.205,0-2.166-0.969-2.166-2.174l0,0
		c0-1.182,0.961-2.166,2.166-2.166h238.143C454.585,253.235,455.562,254.22,455.562,255.409L455.562,255.409z"/>
	<path style="fill:#324349;" d="M455.562,485.927c0,4.261-3.45,7.712-7.711,7.712H45.796c-4.261,0.008-7.712-3.45-7.712-7.712
		v-206.32c0-4.269,3.45-7.711,7.712-7.711H447.85c4.261,0,7.711,3.45,7.711,7.711V485.927z"/>
</g>
<path style="fill:#5A6C77;" d="M225.532,484.281c0,5.183-4.191,9.366-9.366,9.366H47.451c-5.183,0-9.366-4.183-9.366-9.366V9.381
	C38.085,4.198,42.268,0,47.451,0h168.708c5.175,0,9.366,4.198,9.366,9.381v474.9H225.532z"/>
<path style="fill:#455760;" d="M38.085,9.381C38.085,4.198,42.268,0,47.451,0h168.708c5.175,0,9.366,4.198,9.366,9.381v474.9
	c0,5.183-4.191,9.366-9.366,9.366"/>
<g>
	<circle style="fill:#FFC215;" cx="73.964" cy="32.295" r="6.593"/>
	<circle style="fill:#FFC215;" cx="112.522" cy="32.295" r="6.593"/>
	<circle style="fill:#FFC215;" cx="151.095" cy="32.295" r="6.593"/>
	<circle style="fill:#FFC215;" cx="189.637" cy="32.295" r="6.593"/>
	<circle style="fill:#FFC215;" cx="73.964" cy="71.499" r="6.593"/>
	<circle style="fill:#FFC215;" cx="112.522" cy="71.499" r="6.593"/>
	<circle style="fill:#FFC215;" cx="151.095" cy="71.499" r="6.593"/>
	<circle style="fill:#FFC215;" cx="189.637" cy="71.499" r="6.593"/>
	<circle style="fill:#FFC215;" cx="73.964" cy="110.702" r="6.593"/>
	<circle style="fill:#FFC215;" cx="112.522" cy="110.702" r="6.593"/>
	<circle style="fill:#FFC215;" cx="151.095" cy="110.702" r="6.593"/>
	<circle style="fill:#FFC215;" cx="189.637" cy="110.702" r="6.593"/>
	<circle style="fill:#FFC215;" cx="73.964" cy="149.937" r="6.593"/>
	<circle style="fill:#FFC215;" cx="112.522" cy="149.937" r="6.593"/>
	<circle style="fill:#FFC215;" cx="151.095" cy="149.937" r="6.593"/>
	<circle style="fill:#FFC215;" cx="189.637" cy="149.937" r="6.593"/>
	<circle style="fill:#FFC215;" cx="73.964" cy="189.086" r="6.593"/>
	<circle style="fill:#FFC215;" cx="112.522" cy="189.086" r="6.593"/>
	<circle style="fill:#FFC215;" cx="151.095" cy="189.086" r="6.593"/>
	<circle style="fill:#FFC215;" cx="189.637" cy="189.086" r="6.593"/>
	<circle style="fill:#FFC215;" cx="73.964" cy="228.313" r="6.593"/>
	<circle style="fill:#FFC215;" cx="112.522" cy="228.313" r="6.593"/>
	<circle style="fill:#FFC215;" cx="151.095" cy="228.313" r="6.593"/>
	<circle style="fill:#FFC215;" cx="189.637" cy="228.313" r="6.593"/>
	<circle style="fill:#FFC215;" cx="73.964" cy="267.54" r="6.593"/>
	<circle style="fill:#FFC215;" cx="112.522" cy="267.54" r="6.593"/>
	<circle style="fill:#FFC215;" cx="151.095" cy="267.54" r="6.593"/>
	<circle style="fill:#FFC215;" cx="189.637" cy="267.54" r="6.593"/>
	<circle style="fill:#FFC215;" cx="73.964" cy="306.767" r="6.593"/>
	<circle style="fill:#FFC215;" cx="112.522" cy="306.767" r="6.593"/>
	<circle style="fill:#FFC215;" cx="151.095" cy="306.767" r="6.593"/>
	<circle style="fill:#FFC215;" cx="189.637" cy="306.767" r="6.593"/>
	<circle style="fill:#FFC215;" cx="73.964" cy="345.915" r="6.593"/>
	<circle style="fill:#FFC215;" cx="112.522" cy="345.915" r="6.593"/>
	<circle style="fill:#FFC215;" cx="151.095" cy="345.915" r="6.593"/>
	<circle style="fill:#FFC215;" cx="189.637" cy="345.915" r="6.593"/>
	<circle style="fill:#FFC215;" cx="73.964" cy="385.142" r="6.593"/>
	<circle style="fill:#FFC215;" cx="112.522" cy="385.142" r="6.593"/>
	<circle style="fill:#FFC215;" cx="151.095" cy="385.142" r="6.593"/>
	<circle style="fill:#FFC215;" cx="189.637" cy="385.142" r="6.593"/>
	<circle style="fill:#FFC215;" cx="73.964" cy="424.369" r="6.593"/>
	<circle style="fill:#FFC215;" cx="112.522" cy="424.369" r="6.593"/>
	<circle style="fill:#FFC215;" cx="151.095" cy="424.369" r="6.593"/>
	<circle style="fill:#FFC215;" cx="189.637" cy="424.369" r="6.593"/>
	<path style="fill:#FFC215;" d="M144.864,444.148h-26.12c-2.363,0-4.293,1.922-4.293,4.285v45.214h34.729v-45.214
		C149.173,446.07,147.243,444.148,144.864,444.148z"/>
</g>
<g>
	<path style="fill:#FFA017;" d="M149.173,493.647v-45.214c0-2.363-1.93-4.285-4.309-4.285h-26.12c-2.363,0-4.293,1.922-4.293,4.285"
		/>
	<path style="fill:#FFA017;" d="M260.797,311.509c0,0.622-0.488,1.126-1.111,1.126h-10.862c-0.622,0-1.118-0.496-1.118-1.126v-10.87
		c0-0.614,0.496-1.118,1.118-1.118h10.862c0.622,0,1.111,0.496,1.111,1.118V311.509z"/>
	<path style="fill:#FFA017;" d="M298.606,311.509c0,0.622-0.504,1.126-1.126,1.126h-10.854c-0.622,0-1.118-0.496-1.118-1.126v-10.87
		c0-0.614,0.496-1.118,1.118-1.118h10.854c0.622,0,1.126,0.496,1.126,1.118V311.509z"/>
	<path style="fill:#FFA017;" d="M336.4,311.509c0,0.622-0.496,1.126-1.118,1.126h-10.862c-0.614,0-1.111-0.496-1.111-1.126v-10.87
		c0-0.614,0.496-1.118,1.111-1.118h10.862c0.614,0,1.118,0.496,1.118,1.118V311.509z"/>
	<path style="fill:#FFA017;" d="M374.201,311.509c0,0.622-0.504,1.126-1.118,1.126H362.22c-0.614,0-1.118-0.496-1.118-1.126v-10.87
		c0-0.614,0.496-1.118,1.118-1.118h10.862c0.614,0,1.118,0.496,1.118,1.118V311.509z"/>
	<path style="fill:#FFA017;" d="M411.995,311.509c0,0.622-0.496,1.126-1.118,1.126h-10.862c-0.614,0-1.111-0.496-1.111-1.126v-10.87
		c0-0.614,0.496-1.118,1.111-1.118h10.862c0.622,0,1.118,0.496,1.118,1.118V311.509z"/>
	<path style="fill:#FFA017;" d="M260.797,349.318c0,0.607-0.488,1.111-1.111,1.111h-10.862c-0.622,0-1.118-0.496-1.118-1.111
		v-10.886c0-0.614,0.496-1.118,1.118-1.118h10.862c0.622,0,1.111,0.496,1.111,1.118V349.318z"/>
	<path style="fill:#FFA017;" d="M298.606,349.318c0,0.607-0.504,1.111-1.126,1.111h-10.854c-0.622,0-1.118-0.496-1.118-1.111
		v-10.886c0-0.614,0.496-1.118,1.118-1.118h10.854c0.622,0,1.126,0.496,1.126,1.118V349.318z"/>
	<path style="fill:#FFA017;" d="M336.4,349.318c0,0.607-0.496,1.111-1.118,1.111h-10.862c-0.614,0-1.111-0.496-1.111-1.111v-10.886
		c0-0.614,0.496-1.118,1.111-1.118h10.862c0.614,0,1.118,0.496,1.118,1.118V349.318z"/>
	<path style="fill:#FFA017;" d="M374.201,349.318c0,0.607-0.504,1.111-1.118,1.111H362.22c-0.614,0-1.118-0.496-1.118-1.111v-10.886
		c0-0.614,0.496-1.118,1.118-1.118h10.862c0.614,0,1.118,0.496,1.118,1.118V349.318z"/>
	<path style="fill:#FFA017;" d="M411.995,349.318c0,0.607-0.496,1.111-1.118,1.111h-10.862c-0.614,0-1.111-0.496-1.111-1.111
		v-10.886c0-0.614,0.496-1.118,1.111-1.118h10.862c0.622,0,1.118,0.496,1.118,1.118V349.318z"/>
	<path style="fill:#FFA017;" d="M260.797,387.111c0,0.614-0.488,1.119-1.111,1.119h-10.862c-0.622,0-1.118-0.496-1.118-1.119
		v-10.878c0-0.614,0.496-1.119,1.118-1.119h10.862c0.622,0,1.111,0.496,1.111,1.119V387.111z"/>
	<path style="fill:#FFA017;" d="M298.606,387.111c0,0.614-0.504,1.119-1.126,1.119h-10.854c-0.622,0-1.118-0.496-1.118-1.119
		v-10.878c0-0.614,0.496-1.119,1.118-1.119h10.854c0.622,0,1.126,0.496,1.126,1.119V387.111z"/>
	<path style="fill:#FFA017;" d="M336.4,387.111c0,0.614-0.496,1.119-1.118,1.119h-10.862c-0.614,0-1.111-0.496-1.111-1.119v-10.878
		c0-0.614,0.496-1.119,1.111-1.119h10.862c0.614,0,1.118,0.496,1.118,1.119V387.111z"/>
	<path style="fill:#FFA017;" d="M374.201,387.111c0,0.614-0.504,1.119-1.118,1.119H362.22c-0.614,0-1.118-0.496-1.118-1.119v-10.878
		c0-0.614,0.496-1.119,1.118-1.119h10.862c0.614,0,1.118,0.496,1.118,1.119V387.111z"/>
	<path style="fill:#FFA017;" d="M411.995,387.111c0,0.614-0.496,1.119-1.118,1.119h-10.862c-0.614,0-1.111-0.496-1.111-1.119
		v-10.878c0-0.614,0.496-1.119,1.111-1.119h10.862c0.622,0,1.118,0.496,1.118,1.119V387.111z"/>
	<path style="fill:#FFA017;" d="M260.797,424.897c0,0.622-0.488,1.118-1.111,1.118h-10.862c-0.622,0-1.118-0.488-1.118-1.118v-10.87
		c0-0.622,0.496-1.119,1.118-1.119h10.862c0.622,0,1.111,0.488,1.111,1.119V424.897z"/>
	<path style="fill:#FFA017;" d="M298.606,424.897c0,0.622-0.504,1.118-1.126,1.118h-10.854c-0.622,0-1.118-0.488-1.118-1.118v-10.87
		c0-0.622,0.496-1.119,1.118-1.119h10.854c0.622,0,1.126,0.488,1.126,1.119V424.897z"/>
	<path style="fill:#FFA017;" d="M336.4,424.897c0,0.622-0.496,1.118-1.118,1.118h-10.862c-0.614,0-1.111-0.488-1.111-1.118v-10.87
		c0-0.622,0.496-1.119,1.111-1.119h10.862c0.614,0,1.118,0.488,1.118,1.119V424.897z"/>
	<path style="fill:#FFA017;" d="M374.201,424.897c0,0.622-0.504,1.118-1.118,1.118H362.22c-0.614,0-1.118-0.488-1.118-1.118v-10.87
		c0-0.622,0.496-1.119,1.118-1.119h10.862c0.614,0,1.118,0.488,1.118,1.119V424.897z"/>
	<path style="fill:#FFA017;" d="M411.995,424.897c0,0.622-0.496,1.118-1.118,1.118h-10.862c-0.614,0-1.111-0.488-1.111-1.118v-10.87
		c0-0.622,0.496-1.119,1.111-1.119h10.862c0.622,0,1.118,0.488,1.118,1.119V424.897z"/>
</g>
<path style="fill:#FFC215;" d="M367.994,444.148h-64.575c-5.845,0-10.602,1.922-10.602,4.285v45.214h85.827v-45.214
	C378.636,446.07,373.878,444.148,367.994,444.148z"/>
<path style="fill:#FFA017;" d="M378.636,493.647v-45.214c0-2.363-4.758-4.285-10.65-4.285h-64.575
	c-5.845,0-10.602,1.922-10.602,4.285"/>
<g>
	<path style="fill:#324349;" d="M233.567,274.141c0,0.362-0.291,0.638-0.63,0.638l0,0c-0.362,0-0.654-0.276-0.654-0.638v-17.692
		c0-0.347,0.291-0.63,0.654-0.63l0,0c0.339,0,0.63,0.284,0.63,0.63V274.141z"/>
	<path style="fill:#324349;" d="M242.885,274.141c0,0.362-0.291,0.638-0.638,0.638l0,0c-0.354,0-0.646-0.276-0.646-0.638v-17.692
		c0-0.347,0.291-0.63,0.646-0.63l0,0c0.347,0,0.638,0.284,0.638,0.63V274.141z"/>
	<path style="fill:#324349;" d="M252.203,274.141c0,0.362-0.291,0.638-0.638,0.638l0,0c-0.362,0-0.654-0.276-0.654-0.638v-17.692
		c0-0.347,0.291-0.63,0.654-0.63l0,0c0.347,0,0.638,0.284,0.638,0.63V274.141z"/>
	<path style="fill:#324349;" d="M261.53,274.141c0,0.362-0.299,0.638-0.646,0.638l0,0c-0.347,0-0.646-0.276-0.646-0.638v-17.692
		c0-0.347,0.299-0.63,0.646-0.63l0,0c0.347,0,0.646,0.284,0.646,0.63V274.141z"/>
	<path style="fill:#324349;" d="M270.832,274.141c0,0.362-0.284,0.638-0.63,0.638l0,0c-0.362,0-0.654-0.276-0.654-0.638v-17.692
		c0-0.347,0.291-0.63,0.654-0.63l0,0c0.347,0,0.63,0.284,0.63,0.63V274.141z"/>
	<path style="fill:#324349;" d="M280.159,274.141c0,0.362-0.291,0.638-0.638,0.638l0,0c-0.354,0-0.654-0.276-0.654-0.638v-17.692
		c0-0.347,0.291-0.63,0.654-0.63l0,0c0.347,0,0.638,0.284,0.638,0.63V274.141z"/>
	<path style="fill:#324349;" d="M289.477,274.141c0,0.362-0.291,0.638-0.638,0.638l0,0c-0.362,0-0.646-0.276-0.646-0.638v-17.692
		c0-0.347,0.284-0.63,0.646-0.63l0,0c0.347,0,0.638,0.284,0.638,0.63V274.141z"/>
	<path style="fill:#324349;" d="M298.795,274.141c0,0.362-0.299,0.638-0.638,0.638l0,0c-0.354,0-0.654-0.276-0.654-0.638v-17.692
		c0-0.347,0.299-0.63,0.654-0.63l0,0c0.339,0,0.638,0.284,0.638,0.63V274.141z"/>
	<path style="fill:#324349;" d="M308.106,274.141c0,0.362-0.284,0.638-0.63,0.638l0,0c-0.362,0-0.646-0.276-0.646-0.638v-17.692
		c0-0.347,0.284-0.63,0.646-0.63l0,0c0.347,0,0.63,0.284,0.63,0.63V274.141z"/>
	<path style="fill:#324349;" d="M317.432,274.141c0,0.362-0.299,0.638-0.646,0.638l0,0c-0.362,0-0.654-0.276-0.654-0.638v-17.692
		c0-0.347,0.291-0.63,0.654-0.63l0,0c0.347,0,0.646,0.284,0.646,0.63V274.141z"/>
	<path style="fill:#324349;" d="M326.743,274.141c0,0.362-0.291,0.638-0.638,0.638l0,0c-0.354,0-0.646-0.276-0.646-0.638v-17.692
		c0-0.347,0.291-0.63,0.646-0.63l0,0c0.347,0,0.638,0.284,0.638,0.63V274.141z"/>
	<path style="fill:#324349;" d="M336.069,274.141c0,0.362-0.291,0.638-0.638,0.638l0,0c-0.362,0-0.646-0.276-0.646-0.638v-17.692
		c0-0.347,0.284-0.63,0.646-0.63l0,0c0.347,0,0.638,0.284,0.638,0.63V274.141z"/>
	<path style="fill:#324349;" d="M345.379,274.141c0,0.362-0.291,0.638-0.638,0.638l0,0c-0.362,0-0.654-0.276-0.654-0.638v-17.692
		c0-0.347,0.284-0.63,0.654-0.63l0,0c0.347,0,0.638,0.284,0.638,0.63V274.141z"/>
	<path style="fill:#324349;" d="M354.706,274.141c0,0.362-0.299,0.638-0.646,0.638l0,0c-0.37,0-0.638-0.276-0.638-0.638v-17.692
		c0-0.347,0.268-0.63,0.638-0.63l0,0c0.347,0,0.646,0.284,0.646,0.63V274.141z"/>
	<path style="fill:#324349;" d="M364.016,274.141c0,0.362-0.291,0.638-0.638,0.638l0,0c-0.362,0-0.654-0.276-0.654-0.638v-17.692
		c0-0.347,0.291-0.63,0.654-0.63l0,0c0.347,0,0.638,0.284,0.638,0.63V274.141z"/>
	<path style="fill:#324349;" d="M373.335,274.141c0,0.362-0.291,0.638-0.63,0.638l0,0c-0.378,0-0.646-0.276-0.646-0.638v-17.692
		c0-0.347,0.268-0.63,0.646-0.63l0,0c0.339,0,0.63,0.284,0.63,0.63V274.141z"/>
	<path style="fill:#324349;" d="M382.669,274.141c0,0.362-0.307,0.638-0.654,0.638l0,0c-0.362,0-0.646-0.276-0.646-0.638v-17.692
		c0-0.347,0.284-0.63,0.646-0.63l0,0c0.347,0,0.654,0.284,0.654,0.63V274.141z"/>
	<path style="fill:#324349;" d="M391.971,274.141c0,0.362-0.299,0.638-0.638,0.638l0,0c-0.37,0-0.646-0.276-0.646-0.638v-17.692
		c0-0.347,0.276-0.63,0.646-0.63l0,0c0.339,0,0.638,0.284,0.638,0.63V274.141z"/>
	<path style="fill:#324349;" d="M401.298,274.141c0,0.362-0.299,0.638-0.646,0.638l0,0c-0.362,0-0.646-0.276-0.646-0.638v-17.692
		c0-0.347,0.284-0.63,0.646-0.63l0,0c0.347,0,0.646,0.284,0.646,0.63V274.141z"/>
	<path style="fill:#324349;" d="M410.608,274.141c0,0.362-0.299,0.638-0.638,0.638l0,0c-0.378,0-0.654-0.276-0.654-0.638v-17.692
		c0-0.347,0.268-0.63,0.654-0.63l0,0c0.339,0,0.638,0.284,0.638,0.63V274.141z"/>
	<path style="fill:#324349;" d="M419.935,274.141c0,0.362-0.307,0.638-0.654,0.638l0,0c-0.362,0-0.646-0.276-0.646-0.638v-17.692
		c0-0.347,0.284-0.63,0.646-0.63l0,0c0.347,0,0.654,0.284,0.654,0.63V274.141z"/>
	<path style="fill:#324349;" d="M429.245,274.141c0,0.362-0.291,0.638-0.63,0.638l0,0c-0.378,0-0.654-0.276-0.654-0.638v-17.692
		c0-0.347,0.276-0.63,0.654-0.63l0,0c0.339,0,0.63,0.284,0.63,0.63V274.141z"/>
	<path style="fill:#324349;" d="M438.563,274.141c0,0.362-0.299,0.638-0.646,0.638l0,0c-0.362,0-0.654-0.276-0.654-0.638v-17.692
		c0-0.347,0.284-0.63,0.654-0.63l0,0c0.347,0,0.646,0.284,0.646,0.63V274.141z"/>
	<path style="fill:#324349;" d="M447.882,274.141c0,0.362-0.299,0.638-0.638,0.638l0,0c-0.378,0-0.646-0.276-0.646-0.638v-17.692
		c0-0.347,0.268-0.63,0.646-0.63l0,0c0.339,0,0.638,0.284,0.638,0.63V274.141z"/>
</g>
</svg>