<?xml version="1.0" encoding="iso-8859-1"?>
<!-- Uploaded to: SVG Repo, www.svgrepo.com, Generator: SVG Repo Mixer Tools -->
<svg height="800px" width="800px" version="1.1" id="Layer_1" xmlns="http://www.w3.org/2000/svg" xmlns:xlink="http://www.w3.org/1999/xlink" 
	 viewBox="0 0 392.533 392.533" xml:space="preserve">
<path style="fill:#FFC10D;" d="M139.677,133.107c1.034,3.038,2.263,6.012,3.814,9.051c2.069,4.202,1.293,9.244-2.004,12.606
	l-12.994,12.994l18.295,18.295l12.994-12.994c3.297-3.297,8.404-4.202,12.606-2.004c3.038,1.552,6.012,2.78,9.05,3.814
	c4.461,1.487,7.499,5.624,7.499,10.343v18.295h25.859v-18.295c0-4.719,3.038-8.857,7.499-10.343
	c2.909-1.034,6.012-2.263,9.051-3.814c4.202-2.133,9.244-1.293,12.606,2.004l12.994,12.994l18.295-18.295l-12.994-12.994
	c-3.297-3.297-4.202-8.404-2.004-12.606c1.552-3.038,2.78-6.077,3.814-9.051c1.487-4.461,5.624-7.499,10.343-7.499h18.295V99.749
	H274.4c-4.719,0-8.857-3.038-10.343-7.499c-1.034-2.909-2.263-6.012-3.814-9.051c-2.069-4.202-1.293-9.244,2.004-12.606L275.24,57.6
	l-18.295-18.295l-12.994,12.994c-3.297,3.297-8.404,4.202-12.671,2.004c-3.038-1.552-6.012-2.78-9.051-3.814
	c-4.461-1.487-7.499-5.624-7.499-10.343V21.851h-25.859v18.295c0,4.719-3.038,8.857-7.499,10.343
	c-3.038,1.034-6.012,2.263-9.051,3.814c-4.202,2.133-9.244,1.293-12.606-2.004l-12.929-12.994L128.493,57.6l12.929,12.994
	c3.297,3.297,4.202,8.404,2.004,12.606c-1.552,3.038-2.78,6.012-3.814,9.051c-1.487,4.461-5.624,7.499-10.343,7.499h-18.36v25.859
	h18.295C134.053,125.608,138.19,128.646,139.677,133.107z M201.802,68.008c24.63,0,44.671,20.04,44.671,44.671
	s-20.04,44.671-44.671,44.671s-44.671-20.04-44.671-44.671S177.172,68.008,201.802,68.008z"/>
<path style="fill:#56ACE0;" d="M351.394,370.812c3.103-24.954,3.426-48.808,0.453-53.85
	c-10.925-15.774-71.758-32.517-116.299-40.598l-29.285,70.788c-1.681,4.073-5.624,6.723-10.02,6.723s-8.404-2.65-10.02-6.723
	l-29.22-70.788c-44.477,8.016-105.374,24.76-116.364,40.598c-2.844,4.913-2.521,28.832,0.517,53.786h310.238V370.812z"/>
<polygon style="fill:#FFFFFF;" points="212.533,275.071 179.952,275.071 196.242,314.505 "/>
<g>
	<path style="fill:#194F82;" d="M100.113,147.394h17.778L105.285,160c-4.267,4.267-4.267,11.119,0,15.451l33.745,33.745
		c4.267,4.267,11.119,4.267,15.451,0l12.606-12.606v17.842c0,6.012,4.848,10.925,10.925,10.925h47.709
		c6.012,0,10.925-4.848,10.925-10.925v-17.778l12.606,12.606c4.267,4.267,11.119,4.267,15.45,0l33.745-33.745
		c4.655-4.396,4.202-11.313,0-15.451l-12.606-12.606h17.713c6.012,0,10.925-4.848,10.925-10.925V88.824
		c0-6.012-4.848-10.925-10.925-10.925h-17.778l12.606-12.606c4.719-5.042,4.073-11.184,0-15.451l-33.745-33.745
		c-4.267-4.267-11.119-4.267-15.451,0l-12.606,12.606V10.925C236.582,4.913,231.733,0,225.657,0h-47.709
		c-6.012,0-10.925,4.848-10.925,10.925v17.778l-12.606-12.606c-4.267-4.267-11.119-4.267-15.451,0L105.22,49.842
		c-4.267,4.267-4.267,11.119,0,15.451l12.606,12.606h-17.778c-6.012,0-10.925,4.848-10.925,10.925v47.709
		C89.188,142.545,94.101,147.394,100.113,147.394z M111.038,99.749h18.295c4.719,0,8.857-3.038,10.343-7.499
		c1.034-3.038,2.263-6.012,3.814-9.051c2.133-4.202,1.293-9.244-2.004-12.606L128.493,57.6l18.295-18.295l12.994,12.994
		c3.297,3.297,8.404,4.202,12.606,2.004c3.038-1.552,6.012-2.78,9.05-3.814c4.461-1.487,7.499-5.624,7.499-10.343V21.851h25.859
		v18.295c0,4.719,3.038,8.857,7.499,10.343c3.038,1.034,6.012,2.263,9.051,3.814c4.267,2.133,9.244,1.293,12.671-2.004
		l12.994-12.994L275.305,57.6l-12.994,12.994c-3.297,3.297-4.202,8.404-2.004,12.606c1.552,3.038,2.78,6.012,3.814,9.051
		c1.487,4.461,5.624,7.499,10.343,7.499h18.295v25.859h-18.295c-4.719,0-8.857,3.038-10.343,7.499
		c-1.034,2.909-2.263,6.012-3.814,9.051c-2.069,4.202-1.293,9.244,2.004,12.606l12.994,12.994l-18.295,18.295l-12.994-12.994
		c-3.297-3.297-8.404-4.202-12.606-2.004c-3.038,1.552-6.012,2.78-9.051,3.814c-4.461,1.487-7.499,5.624-7.499,10.343v18.295
		h-25.859v-18.295c0-4.719-3.038-8.857-7.499-10.343c-2.909-1.034-6.012-2.263-9.051-3.814c-4.202-2.069-9.244-1.293-12.606,2.004
		l-13.059,12.994l-18.295-18.295l12.994-12.994c3.297-3.297,4.202-8.404,2.004-12.606c-1.552-3.038-2.78-6.012-3.814-9.051
		c-1.487-4.461-5.624-7.499-10.343-7.499h-18.295V99.749L111.038,99.749z"/>
	<path style="fill:#194F82;" d="M201.802,157.285c24.63,0,44.671-20.04,44.671-44.671s-20.04-44.671-44.671-44.671
		s-44.671,20.04-44.671,44.671S177.172,157.285,201.802,157.285z M201.802,89.859c12.606,0,22.885,10.279,22.885,22.885
		c0,12.606-10.279,22.885-22.885,22.885s-22.885-10.279-22.885-22.885C178.917,100.073,189.196,89.859,201.802,89.859z"/>
	<path style="fill:#194F82;" d="M369.883,304.679c-21.075-30.642-119.855-48.097-139.378-51.265c-0.453-0.065-67.943-0.065-68.461,0
		c-19.523,3.168-118.303,20.622-139.378,51.2c-10.149,14.61-4.655,59.863-1.745,78.675c0.776,5.301,5.43,9.244,10.796,9.244h329.244
		c5.43,0,9.956-3.943,10.796-9.244C374.537,364.541,379.968,319.289,369.883,304.679z M212.533,275.071l-16.291,39.434
		l-16.291-39.434H212.533z M351.394,370.812H41.091c-3.103-24.954-3.426-48.808-0.517-53.786
		c10.925-15.838,71.758-32.517,116.364-40.598l29.22,70.788c1.681,4.073,5.624,6.723,10.02,6.723s8.404-2.65,10.02-6.723
		l29.22-70.723c44.541,8.016,105.374,24.76,116.299,40.598C354.82,322.004,354.432,345.859,351.394,370.812z"/>
</g>
</svg>